<?xml version="1.0" standalone="no"?>
<!DOCTYPE svg PUBLIC "-//W3C//DTD SVG 20010904//EN"
 "http://www.w3.org/TR/2001/REC-SVG-20010904/DTD/svg10.dtd">
<svg version="1.0" xmlns="http://www.w3.org/2000/svg"
 width="500.000000pt" height="500.000000pt" viewBox="0 0 500.000000 500.000000"
 preserveAspectRatio="xMidYMid meet">

<g transform="translate(0.000000,500.000000) scale(0.100000,-0.100000)"
fill="#000000" stroke="none">
<path d="M2295 4985 c-435 -45 -793 -167 -1138 -386 -242 -154 -492 -388 -664
-619 -165 -223 -306 -510 -387 -789 -68 -233 -113 -577 -101 -766 24 -392 100
-697 247 -1005 346 -720 1012 -1231 1796 -1375 812 -150 1632 105 2218 690
604 602 856 1460 674 2298 -157 725 -651 1361 -1319 1696 -397 200 -913 300
-1326 256z m1695 -1300 l0 -65 -207 -2 -206 -3 -58 -225 c-33 -124 -74 -283
-93 -355 -19 -71 -87 -332 -152 -580 -64 -247 -135 -522 -158 -610 l-42 -160
-864 -3 -865 -2 -59 217 c-189 696 -365 1333 -372 1344 -6 10 251 11 1216 8
l1224 -4 61 235 c33 129 64 243 67 253 7 16 29 17 258 17 l250 0 0 -65z
m-2302 -2110 c116 -35 192 -133 200 -260 4 -62 1 -81 -20 -127 -88 -193 -333
-232 -472 -77 -119 132 -95 325 53 429 67 47 155 60 239 35z m1229 -10 c180
-75 230 -313 96 -456 -59 -64 -119 -91 -202 -92 -152 -2 -277 110 -288 258
-12 142 71 264 205 302 54 15 137 10 189 -12z"/>
<path d="M1080 3124 c0 -11 90 -337 96 -346 3 -4 99 -8 215 -8 l209 0 -1 33
c0 17 -8 97 -17 177 l-17 145 -243 3 c-133 1 -242 -1 -242 -4z"/>
<path d="M1691 3114 c1 -66 38 -327 46 -335 7 -7 81 -10 212 -7 l202 3 2 173
2 172 -75 0 c-41 0 -146 3 -232 7 -151 6 -158 5 -157 -13z"/>
<path d="M2280 2945 l0 -176 198 1 c109 1 203 4 209 8 6 4 20 72 32 152 12 80
24 155 27 168 l4 22 -235 0 -235 0 0 -175z"/>
<path d="M2870 3108 c0 -7 -11 -83 -24 -168 -13 -85 -22 -158 -19 -162 2 -5
94 -8 203 -8 l199 0 10 38 c25 97 73 279 77 295 5 16 -10 17 -220 17 -174 0
-226 -3 -226 -12z"/>
<path d="M1214 2633 c2 -10 18 -70 35 -133 17 -63 38 -141 48 -172 l16 -58
174 0 c95 0 173 3 173 8 0 4 -9 86 -20 182 -11 96 -20 178 -20 183 0 4 -93 7
-206 7 -191 0 -205 -1 -200 -17z"/>
<path d="M1745 2623 c3 -16 12 -95 20 -178 9 -82 18 -156 20 -162 3 -10 50
-13 187 -13 l183 0 0 190 0 190 -207 0 -207 0 4 -27z"/>
<path d="M2280 2460 l0 -190 172 2 172 3 22 155 c12 85 25 170 28 188 l5 32
-200 0 -199 0 0 -190z"/>
<path d="M2800 2638 c0 -7 -11 -89 -25 -181 -14 -93 -25 -173 -25 -178 0 -15
336 -12 347 4 5 6 30 92 55 190 l46 177 -199 0 c-152 0 -199 -3 -199 -12z"/>
<path d="M1350 2142 c0 -4 15 -63 34 -132 19 -69 39 -144 45 -167 l12 -43 134
0 c122 0 135 2 135 18 0 9 -7 88 -17 175 l-17 157 -163 0 c-90 0 -163 -3 -163
-8z"/>
<path d="M1800 2143 c0 -5 9 -82 20 -173 11 -91 20 -166 20 -167 0 -2 71 -3
158 -3 l157 0 0 175 0 175 -177 0 c-98 0 -178 -3 -178 -7z"/>
<path d="M2280 1975 l0 -175 138 0 137 0 23 168 c12 92 23 170 22 175 0 4 -72
7 -160 7 l-160 0 0 -175z"/>
<path d="M2725 2118 c-11 -69 -45 -297 -45 -307 0 -7 50 -11 150 -11 83 0 150
3 150 8 0 4 20 82 44 175 l44 167 -168 0 -169 0 -6 -32z"/>
</g>
</svg>
